<svg width="30" height="30" viewBox="0 0 30 30" fill="none" xmlns="http://www.w3.org/2000/svg">
<g clip-path="url(#clip0_74_122)">
<path d="M13.2353 3.75C13.0013 3.75 12.7768 3.84877 12.6114 4.02459C12.4459 4.2004 12.3529 4.43886 12.3529 4.6875C12.3529 4.93614 12.4459 5.1746 12.6114 5.35041C12.7768 5.52623 13.0013 5.625 13.2353 5.625H16.7647C16.9987 5.625 17.2232 5.52623 17.3886 5.35041C17.5541 5.1746 17.6471 4.93614 17.6471 4.6875C17.6471 4.43886 17.5541 4.2004 17.3886 4.02459C17.2232 3.84877 16.9987 3.75 16.7647 3.75H13.2353ZM2.64706 6.5625C2.64706 4.82202 3.29779 3.15282 4.45611 1.92211C5.61442 0.691404 7.18543 0 8.82353 0H21.1765C22.8146 0 24.3856 0.691404 25.5439 1.92211C26.7022 3.15282 27.3529 4.82202 27.3529 6.5625V11.25H29.1176C29.3517 11.25 29.5761 11.3488 29.7416 11.5246C29.907 11.7004 30 11.9389 30 12.1875C30 12.4361 29.907 12.6746 29.7416 12.8504C29.5761 13.0262 29.3517 13.125 29.1176 13.125H27.3529V27.1875C27.3529 27.9334 27.0741 28.6488 26.5776 29.1762C26.0812 29.7037 25.4079 30 24.7059 30H22.9412C22.2391 30 21.5658 29.7037 21.0694 29.1762C20.573 28.6488 20.2941 27.9334 20.2941 27.1875V26.25H9.70588V27.1875C9.70588 27.9334 9.427 28.6488 8.93058 29.1762C8.43416 29.7037 7.76087 30 7.05882 30H5.29412C4.59207 30 3.91878 29.7037 3.42236 29.1762C2.92594 28.6488 2.64706 27.9334 2.64706 27.1875V13.125H0.882353C0.648338 13.125 0.423908 13.0262 0.258435 12.8504C0.0929619 12.6746 0 12.4361 0 12.1875C0 11.9389 0.0929619 11.7004 0.258435 11.5246C0.423908 11.3488 0.648338 11.25 0.882353 11.25H2.64706V6.5625ZM25.5882 6.5625C25.5882 5.3193 25.1234 4.12701 24.2961 3.24794C23.4687 2.36886 22.3465 1.875 21.1765 1.875H8.82353C7.65346 1.875 6.53131 2.36886 5.70394 3.24794C4.87657 4.12701 4.41176 5.3193 4.41176 6.5625V15H25.5882V6.5625ZM22.0588 26.25V27.1875C22.0588 27.4361 22.1518 27.6746 22.3173 27.8504C22.4827 28.0262 22.7072 28.125 22.9412 28.125H24.7059C24.9399 28.125 25.1643 28.0262 25.3298 27.8504C25.4953 27.6746 25.5882 27.4361 25.5882 27.1875V26.25H22.0588ZM4.41176 26.25V27.1875C4.41176 27.4361 4.50473 27.6746 4.6702 27.8504C4.83567 28.0262 5.0601 28.125 5.29412 28.125H7.05882C7.29284 28.125 7.51727 28.0262 7.68274 27.8504C7.84821 27.6746 7.94118 27.4361 7.94118 27.1875V26.25H4.41176ZM11.4706 20.625C11.4706 20.1277 11.2847 19.6508 10.9537 19.2992C10.6228 18.9475 10.1739 18.75 9.70588 18.75C9.23785 18.75 8.78899 18.9475 8.45805 19.2992C8.1271 19.6508 7.94118 20.1277 7.94118 20.625C7.94118 21.1223 8.1271 21.5992 8.45805 21.9508C8.78899 22.3025 9.23785 22.5 9.70588 22.5C10.1739 22.5 10.6228 22.3025 10.9537 21.9508C11.2847 21.5992 11.4706 21.1223 11.4706 20.625ZM20.2941 22.5C20.7621 22.5 21.211 22.3025 21.542 21.9508C21.8729 21.5992 22.0588 21.1223 22.0588 20.625C22.0588 20.1277 21.8729 19.6508 21.542 19.2992C21.211 18.9475 20.7621 18.75 20.2941 18.75C19.8261 18.75 19.3772 18.9475 19.0463 19.2992C18.7153 19.6508 18.5294 20.1277 18.5294 20.625C18.5294 21.1223 18.7153 21.5992 19.0463 21.9508C19.3772 22.3025 19.8261 22.5 20.2941 22.5Z" fill="#192A56"/>
</g>
<defs>
<clipPath id="clip0_74_122">
<rect width="30" height="30" fill="white"/>
</clipPath>
</defs>
</svg>
