<svg width="100" height="100" viewBox="0 0 100 100" fill="none" xmlns="http://www.w3.org/2000/svg">
<path d="M49.9998 81.4649C46.8006 81.4649 43.578 80.6641 40.8436 78.5118L0 49.0041V90.625C0 95.8008 4.1992 100 9.37497 100H90.6247C95.8005 100 99.9997 95.8008 99.9997 90.8008V49.0041L59.16 78.5157C56.4256 80.4688 53.2029 81.4649 49.9998 81.4649ZM96.4059 31.8362C94.6872 30.469 93.0466 29.1995 90.6247 27.3635V18.7464C90.6247 13.5706 86.4255 9.3714 81.2497 9.3714L66.1131 9.37171C65.5027 8.93226 64.9656 8.54164 64.3308 8.10219C61.0545 5.68977 54.5506 -0.0725502 49.9998 0.000691729C45.4686 -0.0725502 38.9452 5.68977 35.6639 8.10578C35.0292 8.54523 34.4921 8.93586 33.8817 9.37531H18.7499C13.5742 9.37531 9.37497 13.5745 9.37497 18.7503V27.3674C6.95896 29.1995 5.32225 30.469 3.58983 31.8362C1.31835 33.594 0 36.3283 0 39.219V41.2932L18.7499 54.8419V18.7503H81.2497V54.8244L99.9997 41.2756V39.219C99.9997 36.3283 98.6911 33.594 96.4059 31.8362ZM34.3749 49.8244H65.6248C67.3505 49.8244 68.7498 48.4252 68.7498 46.8752C68.7498 45.149 67.3505 43.7502 65.6248 43.7502H34.3749C32.6491 43.7502 31.2499 45.149 31.2499 46.8752C31.2499 48.5939 32.6561 49.8244 34.3749 49.8244ZM34.3749 37.3244H65.6248C67.3505 37.3244 68.7498 35.9252 68.7498 34.1994C68.7498 32.4733 67.3505 31.2502 65.6248 31.2502H34.3749C32.6491 31.2502 31.2499 32.6491 31.2499 34.1994C31.2499 36.094 32.6561 37.3244 34.3749 37.3244Z" fill="#192A56"/>
</svg>
