<svg width="70" height="70" viewBox="0 0 70 70" fill="none" xmlns="http://www.w3.org/2000/svg">
<circle cx="35" cy="35" r="35" fill="url(#paint0_linear_86_344)"/>
<path fill-rule="evenodd" clip-rule="evenodd" d="M27.4417 16.7767C29.3967 16.6867 30.02 16.6667 35 16.6667C39.98 16.6667 40.6034 16.6883 42.5567 16.7767C44.51 16.865 45.8434 17.1767 47.01 17.6283C48.2317 18.09 49.34 18.8117 50.2567 19.745C51.19 20.66 51.91 21.7667 52.37 22.99C52.8234 24.1567 53.1334 25.49 53.2234 27.44C53.3134 29.3983 53.3334 30.0217 53.3334 35C53.3334 39.98 53.3117 40.6033 53.2234 42.5583C53.135 44.5083 52.8234 45.8417 52.37 47.0083C51.91 48.2318 51.1888 49.3403 50.2567 50.2567C49.34 51.19 48.2317 51.91 47.01 52.37C45.8434 52.8233 44.51 53.1333 42.56 53.2233C40.6034 53.3133 39.98 53.3333 35 53.3333C30.02 53.3333 29.3967 53.3117 27.4417 53.2233C25.4917 53.135 24.1584 52.8233 22.9917 52.37C21.7682 51.9099 20.6597 51.1888 19.7434 50.2567C18.8107 49.3411 18.0889 48.2331 17.6284 47.01C17.1767 45.8433 16.8667 44.51 16.7767 42.56C16.6867 40.6017 16.6667 39.9783 16.6667 35C16.6667 30.02 16.6884 29.3967 16.7767 27.4433C16.865 25.49 17.1767 24.1567 17.6284 22.99C18.0896 21.7668 18.8119 20.6589 19.745 19.7433C20.6601 18.8108 21.7675 18.0891 22.99 17.6283C24.1567 17.1767 25.49 16.8667 27.44 16.7767H27.4417ZM42.4084 20.0767C40.475 19.9883 39.895 19.97 35 19.97C30.105 19.97 29.525 19.9883 27.5917 20.0767C25.8034 20.1583 24.8334 20.4567 24.1867 20.7083C23.3317 21.0417 22.72 21.4367 22.0784 22.0783C21.4701 22.6701 21.002 23.3905 20.7084 24.1867C20.4567 24.8333 20.1584 25.8033 20.0767 27.5917C19.9884 29.525 19.97 30.105 19.97 35C19.97 39.895 19.9884 40.475 20.0767 42.4083C20.1584 44.1967 20.4567 45.1667 20.7084 45.8133C21.0017 46.6083 21.47 47.33 22.0784 47.9217C22.67 48.53 23.3917 48.9983 24.1867 49.2917C24.8334 49.5433 25.8034 49.8417 27.5917 49.9233C29.525 50.0117 30.1034 50.03 35 50.03C39.8967 50.03 40.475 50.0117 42.4084 49.9233C44.1967 49.8417 45.1667 49.5433 45.8134 49.2917C46.6684 48.9583 47.28 48.5633 47.9217 47.9217C48.53 47.33 48.9984 46.6083 49.2917 45.8133C49.5434 45.1667 49.8417 44.1967 49.9234 42.4083C50.0117 40.475 50.03 39.895 50.03 35C50.03 30.105 50.0117 29.525 49.9234 27.5917C49.8417 25.8033 49.5434 24.8333 49.2917 24.1867C48.9584 23.3317 48.5634 22.72 47.9217 22.0783C47.3299 21.4701 46.6095 21.002 45.8134 20.7083C45.1667 20.4567 44.1967 20.1583 42.4084 20.0767ZM32.6584 40.6517C33.9661 41.1961 35.4223 41.2695 36.7782 40.8595C38.1342 40.4496 39.3057 39.5815 40.0927 38.4037C40.8797 37.226 41.2334 35.8115 41.0934 34.4018C40.9534 32.9922 40.3284 31.675 39.325 30.675C38.6854 30.0358 37.912 29.5464 37.0606 29.2419C36.2091 28.9375 35.3007 28.8256 34.4008 28.9144C33.501 29.0031 32.6319 29.2903 31.8564 29.7552C31.0808 30.2201 30.4179 30.8512 29.9155 31.6031C29.4131 32.3549 29.0837 33.2088 28.9509 34.1033C28.8181 34.9977 28.8853 35.9105 29.1476 36.7759C29.4099 37.6412 29.8608 38.4377 30.4679 39.1079C31.075 39.7781 31.8231 40.3053 32.6584 40.6517ZM28.3367 28.3367C29.2117 27.4616 30.2506 26.7675 31.3939 26.2939C32.5371 25.8204 33.7625 25.5766 35 25.5766C36.2375 25.5766 37.4629 25.8204 38.6062 26.2939C39.7495 26.7675 40.7883 27.4616 41.6634 28.3367C42.5384 29.2117 43.2325 30.2505 43.7061 31.3938C44.1797 32.5371 44.4234 33.7625 44.4234 35C44.4234 36.2375 44.1797 37.4629 43.7061 38.6062C43.2325 39.7495 42.5384 40.7883 41.6634 41.6633C39.8961 43.4306 37.4993 44.4234 35 44.4234C32.5008 44.4234 30.1039 43.4306 28.3367 41.6633C26.5695 39.8961 25.5766 37.4992 25.5766 35C25.5766 32.5008 26.5695 30.1039 28.3367 28.3367ZM46.5134 26.98C46.7302 26.7755 46.9038 26.5295 47.0239 26.2566C47.1439 25.9838 47.208 25.6896 47.2124 25.3916C47.2167 25.0935 47.1612 24.7976 47.0492 24.5214C46.9371 24.2451 46.7707 23.9942 46.56 23.7834C46.3492 23.5726 46.0982 23.4063 45.822 23.2942C45.5458 23.1821 45.2499 23.1266 44.9518 23.131C44.6537 23.1353 44.3596 23.1994 44.0867 23.3195C43.8139 23.4396 43.5679 23.6132 43.3634 23.83C42.9655 24.2517 42.7477 24.8119 42.7562 25.3916C42.7646 25.9712 42.9987 26.5248 43.4086 26.9347C43.8186 27.3447 44.3721 27.5787 44.9518 27.5872C45.5315 27.5956 46.0916 27.3778 46.5134 26.98Z" fill="white"/>
<defs>
<linearGradient id="paint0_linear_86_344" x1="112" y1="-38" x2="-38" y2="98" gradientUnits="userSpaceOnUse">
<stop offset="0.267441" stop-color="#7128BA"/>
<stop offset="0.500049" stop-color="#BE2593"/>
<stop offset="0.699483" stop-color="#FDCC46"/>
<stop offset="1" stop-color="#EF8C81"/>
</linearGradient>
</defs>
</svg>
