<svg width="109" height="100" viewBox="0 0 109 100" fill="none" xmlns="http://www.w3.org/2000/svg">
<g clip-path="url(#clip0_52_480)">
<path d="M43.5024 36.5479L39.8552 46.9575H47.2665L43.6218 36.5608C43.5803 36.5608 43.5466 36.5505 43.505 36.5505L43.5024 36.5479Z" fill="#192A56"/>
<path d="M54.426 0C24.3653 0 0 19.2617 0 43.0274C0 58.4938 10.324 72.0497 25.819 79.6324C24.682 83.8819 21.6967 95.0314 21.097 97.4145C20.3598 100.374 22.1821 100.335 23.3763 99.5379C24.3108 98.9149 38.2898 89.4138 44.3227 85.3123C47.5962 85.7977 50.9709 86.0547 54.426 86.0547C84.4842 86.0547 108.852 66.7878 108.852 43.0274C108.852 19.2669 84.4842 0 54.426 0ZM27.6362 54.8336C27.6362 55.5319 27.3532 56.2094 26.8574 56.7027C26.3693 57.1907 25.6918 57.4736 24.9987 57.4736H24.4198C23.7241 57.4736 23.044 57.1907 22.5585 56.7001C22.0627 56.2068 21.7798 55.5241 21.7798 54.831V35.764H16.6061C15.1108 35.764 13.8986 34.5517 13.8986 33.0564C13.8986 31.5612 15.1108 30.3489 16.6061 30.3489H32.5217C34.0195 30.3489 35.2318 31.5612 35.2318 33.0564C35.2318 34.5517 34.0195 35.764 32.5217 35.764H27.6336V54.831L27.6362 54.8336ZM53.6914 57.3335C52.3208 57.8163 50.8177 57.092 50.3375 55.724L48.9876 51.8717H38.1315L36.7816 55.724C36.2987 57.0946 34.7957 57.8163 33.4251 57.3335C32.057 56.8532 31.3353 55.3528 31.8182 53.9795L39.6189 33.059C39.6631 32.9344 39.7176 32.8176 39.7695 32.7034C40.0888 31.1536 41.6905 29.9725 43.6244 29.9725C45.3715 29.9725 46.833 30.9356 47.3418 32.2569C47.3496 32.2647 47.3677 32.2803 47.3677 32.2803L55.3009 53.9795C55.7837 55.3528 55.0595 56.8532 53.6914 57.3335ZM70.7726 57.2971H59.9554C58.5951 57.2971 57.4996 56.1965 57.4996 54.8362C57.4996 54.6778 57.5152 54.5195 57.5463 54.3689C57.5204 54.2158 57.4996 54.0626 57.4996 53.8991V32.9111C57.4996 31.286 58.8131 29.9725 60.4356 29.9725C62.058 29.9725 63.3716 31.286 63.3716 32.9111V52.383H70.7726C72.1328 52.383 73.2283 53.4837 73.2283 54.8388C73.2283 56.1939 72.1328 57.2997 70.7726 57.2997V57.2971ZM93.8996 56.9545C92.7418 57.8293 91.0908 57.5905 90.2238 56.4327L82.423 46.1944L80.7461 47.8687V54.5429C80.7461 56.1679 79.4325 57.4788 77.8101 57.4788C76.1876 57.4788 74.8715 56.1679 74.8715 54.5429V32.9111C74.8715 31.286 76.185 29.9725 77.8101 29.9725C79.4351 29.9725 80.7461 31.286 80.7461 32.9111V40.5612L89.972 31.3353C90.9844 30.3255 92.6224 30.3255 93.6296 31.3353C94.6368 32.3451 94.6368 33.9832 93.6296 34.9904L86.1767 42.4459L94.424 53.2786C95.2936 54.439 95.06 56.0874 93.9022 56.9571L93.8996 56.9545Z" fill="#192A56"/>
</g>
<defs>
<clipPath id="clip0_52_480">
<rect width="108.852" height="100" fill="white"/>
</clipPath>
</defs>
</svg>
