<svg width="40" height="37" viewBox="0 0 40 37" fill="none" xmlns="http://www.w3.org/2000/svg">
<g clip-path="url(#clip0_86_353)">
<path d="M20 0C8.95354 0 0 7.07813 0 15.8113C0 21.4948 3.79376 26.4762 9.48774 29.2626C9.06992 30.8242 7.97291 34.9213 7.75255 35.797C7.48164 36.8845 8.15129 36.8702 8.5901 36.5773C8.93351 36.3484 14.0704 32.857 16.2873 31.3498C17.4902 31.5282 18.7303 31.6226 20 31.6226C31.0455 31.6226 40 24.5426 40 15.8113C40 7.08003 31.0455 0 20 0Z" fill="#2D241F"/>
<path d="M11.9517 11.1543H6.10322C5.55376 11.1543 5.10828 11.5998 5.10828 12.1492C5.10828 12.6987 5.55376 13.1442 6.10322 13.1442H8.00439V20.1508C8.00439 20.4055 8.10837 20.6554 8.29057 20.8376C8.46896 21.0179 8.71888 21.1218 8.97454 21.1218H9.18726C9.44196 21.1218 9.69093 21.0179 9.87027 20.8385C10.0525 20.6573 10.1564 20.4083 10.1564 20.1517V13.1451H11.9527C12.5031 13.1451 12.9486 12.6997 12.9486 12.1502C12.9486 11.6007 12.5031 11.1553 11.9527 11.1553L11.9517 11.1543Z" fill="#F0DB24"/>
<path d="M26.0069 19.2494H23.2873V12.094C23.2873 11.4968 22.8046 11.0142 22.2084 11.0142C21.6122 11.0142 21.1295 11.4968 21.1295 12.094V19.8074C21.1295 19.8675 21.1371 19.9238 21.1467 19.9801C21.1362 20.0354 21.1295 20.0946 21.1295 20.1518C21.1295 20.6517 21.5321 21.0561 22.0319 21.0561H26.0069C26.5068 21.0561 26.9093 20.6517 26.9093 20.1518C26.9093 19.652 26.5068 19.2494 26.0069 19.2494Z" fill="#F0DB24"/>
<path d="M34.6981 19.5775L31.6675 15.5968L34.4062 12.8571C34.7773 12.487 34.7773 11.8851 34.4062 11.514C34.0361 11.1429 33.4342 11.1429 33.0622 11.514L29.6719 14.9042V12.093C29.6719 11.4959 29.1892 11.0132 28.593 11.0132C27.9968 11.0132 27.5132 11.4959 27.5132 12.093V20.043C27.5132 20.6402 27.9959 21.1219 28.593 21.1219C29.1902 21.1219 29.6719 20.6402 29.6719 20.043V17.5905L30.2881 16.9752L33.1547 20.7375C33.4733 21.1639 34.08 21.2517 34.5054 20.9292C34.9318 20.6097 35.0177 20.0039 34.6972 19.5775H34.6981Z" fill="#F0DB24"/>
<path d="M20.3215 19.836L17.4063 11.8622C17.4063 11.8622 17.3996 11.8555 17.3967 11.8536C17.2097 11.3681 16.6727 11.0142 16.0307 11.0142C15.3191 11.0142 14.7305 11.4491 14.6141 12.0177C14.5941 12.0597 14.574 12.1026 14.5588 12.1484L11.6922 19.836C11.5148 20.3407 11.7809 20.892 12.2827 21.0685C12.7864 21.2459 13.3387 20.9798 13.5161 20.4771L14.0122 19.0615H18.0015L18.4975 20.4771C18.675 20.9808 19.2263 21.2459 19.73 21.0685C20.2327 20.892 20.4989 20.3407 20.3215 19.836ZM14.6456 17.2547L15.9859 13.4295C16.0011 13.4295 16.0145 13.4333 16.0288 13.4333L17.3681 17.2538H14.6446L14.6456 17.2547Z" fill="#F0DB24"/>
</g>
<defs>
<clipPath id="clip0_86_353">
<rect width="40" height="36.7471" fill="white"/>
</clipPath>
</defs>
</svg>
