<svg width="70" height="70" viewBox="0 0 70 70" fill="none" xmlns="http://www.w3.org/2000/svg">
<circle cx="35" cy="35" r="35" fill="#FFED4E"/>
<g clip-path="url(#clip0_86_345)">
<path d="M35 17C23.9535 17 15 24.0781 15 32.8113C15 38.4948 18.7938 43.4762 24.4877 46.2626C24.0699 47.8242 22.9729 51.9213 22.7526 52.797C22.4816 53.8845 23.1513 53.8702 23.5901 53.5773C23.9335 53.3484 29.0704 49.857 31.2873 48.3498C32.4902 48.5282 33.7303 48.6226 35 48.6226C46.0455 48.6226 55 41.5426 55 32.8113C55 24.08 46.0455 17 35 17Z" fill="#2D241F"/>
<path d="M26.9517 28.1543H21.1032C20.5538 28.1543 20.1083 28.5997 20.1083 29.1492C20.1083 29.6987 20.5538 30.1441 21.1032 30.1441H23.0044V37.1507C23.0044 37.4054 23.1084 37.6553 23.2906 37.8375C23.469 38.0178 23.7189 38.1218 23.9745 38.1218H24.1873C24.442 38.1218 24.6909 38.0178 24.8703 37.8385C25.0525 37.6572 25.1564 37.4083 25.1564 37.1517V30.1451H26.9527C27.5031 30.1451 27.9486 29.6996 27.9486 29.1501C27.9486 28.6007 27.5031 28.1552 26.9527 28.1552L26.9517 28.1543Z" fill="#F0DB24"/>
<path d="M41.0069 36.2493H38.2872V29.0939C38.2872 28.4967 37.8045 28.014 37.2083 28.014C36.6121 28.014 36.1295 28.4967 36.1295 29.0939V36.8073C36.1295 36.8674 36.1371 36.9237 36.1466 36.98C36.1361 37.0353 36.1295 37.0945 36.1295 37.1517C36.1295 37.6515 36.532 38.056 37.0319 38.056H41.0069C41.5067 38.056 41.9093 37.6515 41.9093 37.1517C41.9093 36.6518 41.5067 36.2493 41.0069 36.2493Z" fill="#F0DB24"/>
<path d="M49.6981 36.5774L46.6675 32.5967L49.4062 29.857C49.7772 29.4869 49.7772 28.885 49.4062 28.5139C49.036 28.1428 48.4341 28.1428 48.0621 28.5139L44.6718 31.9041V29.0929C44.6718 28.4958 44.1892 28.0131 43.593 28.0131C42.9968 28.0131 42.5131 28.4958 42.5131 29.0929V37.0429C42.5131 37.6401 42.9958 38.1218 43.593 38.1218C44.1901 38.1218 44.6718 37.6401 44.6718 37.0429V34.5904L45.2881 33.9751L48.1546 37.7374C48.4732 38.1638 49.0799 38.2516 49.5054 37.9291C49.9318 37.6096 50.0176 37.0038 49.6971 36.5774H49.6981Z" fill="#F0DB24"/>
<path d="M35.3215 36.8359L32.4063 28.8621C32.4063 28.8621 32.3996 28.8554 32.3968 28.8535C32.2098 28.3679 31.6727 28.014 31.0308 28.014C30.3191 28.014 29.7305 28.449 29.6142 29.0176C29.5941 29.0595 29.5741 29.1025 29.5588 29.1482L26.6923 36.8359C26.5149 37.3405 26.781 37.8919 27.2828 38.0684C27.7864 38.2458 28.3388 37.9797 28.5162 37.477L29.0122 36.0613H33.0016L33.4976 37.477C33.675 37.9806 34.2264 38.2458 34.7301 38.0684C35.2328 37.8919 35.4989 37.3405 35.3215 36.8359ZM29.6456 34.2546L30.9859 30.4294C31.0012 30.4294 31.0145 30.4332 31.0288 30.4332L32.3682 34.2536H29.6447L29.6456 34.2546Z" fill="#F0DB24"/>
</g>
<defs>
<clipPath id="clip0_86_345">
<rect width="40" height="36.7471" fill="white" transform="translate(15 17)"/>
</clipPath>
</defs>
</svg>
