<?xml version="1.0" encoding="utf-8"?>
<!-- Generator: Adobe Illustrator 26.2.1, SVG Export Plug-In . SVG Version: 6.00 Build 0)  -->
<svg version="1.1" id="레이어_1" xmlns="http://www.w3.org/2000/svg" xmlns:xlink="http://www.w3.org/1999/xlink" x="0px"
	 y="0px" viewBox="0 0 671.5 671.5" style="enable-background:new 0 0 671.5 671.5;" xml:space="preserve">
<style type="text/css">
	.st0{clip-path:url(#SVGID_00000113332281771640048930000009175791221372443830_);}
	.st1{fill:#2D241F;}
	.st2{fill:#F0DB24;}
</style>
<g>
	<defs>
		<rect id="SVGID_1_" x="29.7" y="55" width="612" height="562.2"/>
	</defs>
	<clipPath id="SVGID_00000000213754078010810760000016824637141064292784_">
		<use xlink:href="#SVGID_1_"  style="overflow:visible;"/>
	</clipPath>
	<g style="clip-path:url(#SVGID_00000000213754078010810760000016824637141064292784_);">
		<path class="st1" d="M335.7,55c-169,0-306,108.3-306,241.9c0,87,58,163.2,145.2,205.8c-6.4,23.9-23.2,86.6-26.5,100
			c-4.1,16.6,6.1,16.4,12.8,11.9c5.3-3.5,83.8-56.9,117.8-80c18.4,2.7,37.4,4.2,56.8,4.2c169,0,306-108.3,306-241.9
			S504.7,55,335.7,55z"/>
		<path class="st2" d="M212.6,225.7h-89.5c-8.4,0-15.2,6.8-15.2,15.2c0,8.4,6.8,15.2,15.2,15.2h29.1v107.2c0,3.9,1.6,7.7,4.4,10.5
			c2.7,2.8,6.6,4.3,10.5,4.3h3.3c3.9,0,7.7-1.6,10.4-4.3c2.8-2.8,4.4-6.6,4.4-10.5V256.1h27.5c8.4,0,15.2-6.8,15.2-15.2
			C227.8,232.5,221,225.7,212.6,225.7L212.6,225.7z"/>
		<path class="st2" d="M427.6,349.5H386V240c0-9.1-7.4-16.5-16.5-16.5c-9.1,0-16.5,7.4-16.5,16.5v118c0,0.9,0.1,1.8,0.3,2.6
			c-0.2,0.8-0.3,1.8-0.3,2.6c0,7.6,6.2,13.8,13.8,13.8h60.8c7.6,0,13.8-6.2,13.8-13.8C441.4,355.7,435.3,349.5,427.6,349.5z"/>
		<path class="st2" d="M560.6,354.5l-46.4-60.9l41.9-41.9c5.7-5.7,5.7-14.9,0-20.5c-5.7-5.7-14.9-5.7-20.6,0L483.7,283v-43
			c0-9.1-7.4-16.5-16.5-16.5c-9.1,0-16.5,7.4-16.5,16.5v121.6c0,9.1,7.4,16.5,16.5,16.5c9.1,0,16.5-7.4,16.5-16.5v-37.5l9.4-9.4
			l43.9,57.6c4.9,6.5,14.2,7.9,20.7,2.9C564.2,370.3,565.5,361,560.6,354.5L560.6,354.5z"/>
		<path class="st2" d="M340.7,358.5l-44.6-122c0,0-0.1-0.1-0.1-0.1c-2.9-7.4-11.1-12.8-20.9-12.8c-10.9,0-19.9,6.7-21.7,15.4
			c-0.3,0.6-0.6,1.3-0.8,2l-43.9,117.6c-2.7,7.7,1.4,16.2,9,18.9c7.7,2.7,16.2-1.4,18.9-9l7.6-21.7h61l7.6,21.7
			c2.7,7.7,11.2,11.8,18.9,9C339.3,374.6,343.4,366.2,340.7,358.5z M253.8,319l20.5-58.5c0.2,0,0.4,0.1,0.7,0.1l20.5,58.5L253.8,319
			L253.8,319z"/>
	</g>
</g>
</svg>
