<svg width="50" height="50" viewBox="0 0 50 50" fill="none" xmlns="http://www.w3.org/2000/svg">
<path fill-rule="evenodd" clip-rule="evenodd" d="M50 2.97619C50 1.33249 48.6675 0 47.0238 0H2.97619C1.33249 0 0 1.33249 0 2.97619V32.7381C0 34.3818 1.33249 35.7143 2.97619 35.7143H21.4286V42.8571H13.0952C11.1228 42.8571 9.5238 44.4561 9.5238 46.4286C9.5238 48.401 11.1228 50 13.0952 50H36.9048C38.8772 50 40.4762 48.401 40.4762 46.4286C40.4762 44.4561 38.8772 42.8571 36.9048 42.8571H28.5714V35.7143H47.0238C48.6675 35.7143 50 34.3818 50 32.7381V2.97619ZM45.2381 4.76189H4.76192V26.1905H45.2381V4.76189Z" fill="#2D241F"/>
</svg>
