<svg width="100" height="100" viewBox="0 0 100 100" fill="none" xmlns="http://www.w3.org/2000/svg">
<path d="M84.375 31.25H65.625C63.1394 31.2525 60.7562 32.241 58.9986 33.9986C57.241 35.7562 56.2525 38.1394 56.25 40.625V59.375C56.2517 61.0321 56.9107 62.6209 58.0824 63.7926C59.2542 64.9643 60.8429 65.6234 62.5 65.625V87.5C62.5017 89.1571 63.1607 90.7459 64.3324 91.9176C65.5042 93.0893 67.0929 93.7484 68.75 93.75H81.25C82.9071 93.7484 84.4958 93.0893 85.6676 91.9176C86.8393 90.7459 87.4983 89.1571 87.5 87.5V65.625C89.1571 65.6234 90.7458 64.9643 91.9176 63.7926C93.0893 62.6209 93.7483 61.0321 93.75 59.375V40.625C93.7475 38.1394 92.759 35.7562 91.0014 33.9986C89.2438 32.241 86.8606 31.2525 84.375 31.25V31.25ZM87.5 59.375H81.25V87.5H68.75V59.375H62.5V40.625C62.5 39.7962 62.8292 39.0013 63.4153 38.4153C64.0013 37.8292 64.7962 37.5 65.625 37.5H84.375C85.2038 37.5 85.9987 37.8292 86.5847 38.4153C87.1708 39.0013 87.5 39.7962 87.5 40.625V59.375ZM62.5 15.625C62.5 13.1527 63.2331 10.736 64.6066 8.68038C65.9801 6.62476 67.9324 5.02261 70.2165 4.07651C72.5005 3.13042 75.0139 2.88287 77.4386 3.36519C79.8634 3.8475 82.0907 5.03801 83.8388 6.78617C85.587 8.53433 86.7775 10.7616 87.2598 13.1864C87.7421 15.6111 87.4946 18.1245 86.5485 20.4085C85.6024 22.6926 84.0002 24.6449 81.9446 26.0184C79.889 27.3919 77.4723 28.125 75 28.125C71.6858 28.1217 68.5083 26.8037 66.1648 24.4602C63.8213 22.1167 62.5033 18.9392 62.5 15.625V15.625ZM68.75 15.625C68.75 16.8611 69.1166 18.0695 69.8033 19.0973C70.4901 20.1251 71.4662 20.9262 72.6082 21.3993C73.7503 21.8723 75.0069 21.9961 76.2193 21.7549C77.4317 21.5138 78.5453 20.9185 79.4194 20.0444C80.2935 19.1703 80.8888 18.0567 81.1299 16.8443C81.3711 15.6319 81.2473 14.3753 80.7742 13.2332C80.3012 12.0912 79.5001 11.1151 78.4723 10.4283C77.4445 9.74156 76.2361 9.37501 75 9.37501C73.3429 9.37666 71.7542 10.0357 70.5824 11.2074C69.4107 12.3792 68.7517 13.9679 68.75 15.625V15.625ZM43.75 50V40.625C43.7475 38.1394 42.759 35.7562 41.0014 33.9986C39.2438 32.241 36.8606 31.2525 34.375 31.25H15.625C13.1394 31.2525 10.7562 32.241 8.99862 33.9986C7.241 35.7562 6.25248 38.1394 6.25 40.625V50H0V56.25H50V50H43.75ZM12.5 40.625C12.5 39.7962 12.8292 39.0013 13.4153 38.4153C14.0013 37.8292 14.7962 37.5 15.625 37.5H34.375C35.2038 37.5 35.9987 37.8292 36.5847 38.4153C37.1708 39.0013 37.5 39.7962 37.5 40.625V50H12.5V40.625ZM12.5 15.625C12.5 13.1527 13.2331 10.736 14.6066 8.68038C15.9801 6.62476 17.9324 5.02261 20.2165 4.07651C22.5005 3.13042 25.0139 2.88287 27.4386 3.36519C29.8634 3.8475 32.0907 5.03801 33.8388 6.78617C35.587 8.53433 36.7775 10.7616 37.2598 13.1864C37.7421 15.6111 37.4946 18.1245 36.5485 20.4085C35.6024 22.6926 34.0002 24.6449 31.9446 26.0184C29.889 27.3919 27.4723 28.125 25 28.125C21.6858 28.1217 18.5083 26.8037 16.1648 24.4602C13.8213 22.1167 12.5033 18.9392 12.5 15.625V15.625ZM18.75 15.625C18.75 16.8611 19.1166 18.0695 19.8033 19.0973C20.4901 20.1251 21.4662 20.9262 22.6082 21.3993C23.7503 21.8723 25.0069 21.9961 26.2193 21.7549C27.4317 21.5138 28.5453 20.9185 29.4194 20.0444C30.2935 19.1703 30.8888 18.0567 31.1299 16.8443C31.3711 15.6319 31.2473 14.3753 30.7742 13.2332C30.3012 12.0912 29.5001 11.1151 28.4723 10.4283C27.4445 9.74156 26.2361 9.37501 25 9.37501C23.3429 9.37666 21.7542 10.0357 20.5824 11.2074C19.4107 12.3792 18.7517 13.9679 18.75 15.625V15.625Z" fill="#192A56"/>
</svg>
