<svg width="30" height="49" viewBox="0 0 30 49" fill="none" xmlns="http://www.w3.org/2000/svg">
<path fill-rule="evenodd" clip-rule="evenodd" d="M0 2.30769C0 1.03319 1.03319 0 2.30769 0H27.6923C28.9668 0 30 1.03319 30 2.30769V46.1538C30 47.4283 28.9668 48.4615 27.6923 48.4615H2.30769C1.03319 48.4615 0 47.4283 0 46.1538V2.30769ZM4.26923 5.76923C4.26923 5.13198 4.78583 4.61538 5.42308 4.61538H24.5769C25.2142 4.61538 25.7308 5.13198 25.7308 5.76923V38.0769C25.7308 38.7142 25.2142 39.2308 24.5769 39.2308H5.42308C4.78583 39.2308 4.26923 38.7142 4.26923 38.0769V5.76923ZM15 46.1538C16.2745 46.1538 17.3077 45.1207 17.3077 43.8462C17.3077 42.5717 16.2745 41.5385 15 41.5385C13.7255 41.5385 12.6923 42.5717 12.6923 43.8462C12.6923 45.1207 13.7255 46.1538 15 46.1538Z" fill="#2D241F"/>
</svg>
