<svg width="30" height="30" viewBox="0 0 30 30" fill="none" xmlns="http://www.w3.org/2000/svg">
<g clip-path="url(#clip0_74_119)">
<path d="M22.9748 0C24.8371 0 26.6231 0.623512 27.9399 1.73337C29.2567 2.84323 29.9965 4.34852 29.9965 5.9181V20.1215C29.9965 21.4553 29.4622 22.75 28.48 23.7959C27.4978 24.8417 26.1254 25.5772 24.5851 25.8834L29.1969 27.733C29.519 27.8616 29.771 28.0886 29.9019 28.368C30.0328 28.6474 30.0327 28.9582 29.9017 29.2376C29.7708 29.5169 29.5187 29.7439 29.1966 29.8724C28.8745 30.001 28.5065 30.0215 28.1671 29.9298L27.9892 29.8698L18.4435 26.0396H11.5884L2.04458 29.8698C1.87734 29.942 1.69462 29.9852 1.50723 29.9968C1.31983 30.0084 1.13158 29.9882 0.953626 29.9374C0.775668 29.8866 0.611621 29.8061 0.471202 29.7009C0.330782 29.5957 0.216845 29.4678 0.136139 29.3248C0.0554334 29.1818 0.00960019 29.0265 0.00135332 28.8683C-0.00689354 28.7101 0.0226143 28.5521 0.0881288 28.4037C0.153643 28.2553 0.253832 28.1194 0.382761 28.0042C0.511691 27.889 0.666739 27.7968 0.838723 27.733L5.44869 25.8818C3.90891 25.5755 2.53689 24.84 1.55479 23.7946C0.572689 22.7492 0.0380064 21.455 0.0373156 20.1215V5.9181C0.0373156 4.34852 0.777097 2.84323 2.09392 1.73337C3.41074 0.623512 5.19673 0 7.05899 0H22.9748ZM7.52711 18.9379C7.0305 18.9379 6.55424 19.1042 6.20309 19.4002C5.85193 19.6961 5.65466 20.0975 5.65466 20.5161C5.65466 20.9346 5.85193 21.336 6.20309 21.632C6.55424 21.928 7.0305 22.0942 7.52711 22.0942C8.02371 22.0942 8.49997 21.928 8.85113 21.632C9.20228 21.336 9.39955 20.9346 9.39955 20.5161C9.39955 20.0975 9.20228 19.6961 8.85113 19.4002C8.49997 19.1042 8.02371 18.9379 7.52711 18.9379ZM22.5067 18.9379C22.0101 18.9379 21.5338 19.1042 21.1827 19.4002C20.8315 19.6961 20.6342 20.0975 20.6342 20.5161C20.6342 20.9346 20.8315 21.336 21.1827 21.632C21.5338 21.928 22.0101 22.0942 22.5067 22.0942C23.0033 22.0942 23.4796 21.928 23.8307 21.632C24.1819 21.336 24.3791 20.9346 24.3791 20.5161C24.3791 20.0975 24.1819 19.6961 23.8307 19.4002C23.4796 19.1042 23.0033 18.9379 22.5067 18.9379ZM22.9748 2.36724H7.05899C5.94164 2.36724 4.87004 2.74135 4.07995 3.40726C3.28986 4.07318 2.84599 4.97635 2.84599 5.9181V14.9925H27.1878V5.9181C27.1878 4.97635 26.7439 4.07318 25.9538 3.40726C25.1638 2.74135 24.0922 2.36724 22.9748 2.36724ZM17.3575 4.73448C17.7299 4.73448 18.0871 4.85918 18.3505 5.08115C18.6138 5.30313 18.7618 5.60418 18.7618 5.9181C18.7618 6.23202 18.6138 6.53307 18.3505 6.75505C18.0871 6.97702 17.7299 7.10172 17.3575 7.10172H12.6763C12.3039 7.10172 11.9467 6.97702 11.6833 6.75505C11.42 6.53307 11.272 6.23202 11.272 5.9181C11.272 5.60418 11.42 5.30313 11.6833 5.08115C11.9467 4.85918 12.3039 4.73448 12.6763 4.73448H17.3575Z" fill="#192A56"/>
</g>
<defs>
<clipPath id="clip0_74_119">
<rect width="30" height="30" fill="white"/>
</clipPath>
</defs>
</svg>
