<svg width="30" height="30" viewBox="0 0 30 30" fill="none" xmlns="http://www.w3.org/2000/svg">
<path d="M27.1875 13.125C27.4361 13.125 27.6746 13.0262 27.8504 12.8504C28.0262 12.6746 28.125 12.4361 28.125 12.1875V7.5C28.125 7.00272 27.9275 6.52581 27.5758 6.17417C27.2242 5.82254 26.7473 5.625 26.25 5.625H3.75C3.25272 5.625 2.77581 5.82254 2.42417 6.17417C2.07254 6.52581 1.875 7.00272 1.875 7.5V12.1875C1.875 12.4361 1.97377 12.6746 2.14959 12.8504C2.3254 13.0262 2.56386 13.125 2.8125 13.125C3.30978 13.125 3.78669 13.3225 4.13833 13.6742C4.48996 14.0258 4.6875 14.5027 4.6875 15C4.6875 15.4973 4.48996 15.9742 4.13833 16.3258C3.78669 16.6775 3.30978 16.875 2.8125 16.875C2.56386 16.875 2.3254 16.9738 2.14959 17.1496C1.97377 17.3254 1.875 17.5639 1.875 17.8125V22.5C1.875 22.9973 2.07254 23.4742 2.42417 23.8258C2.77581 24.1775 3.25272 24.375 3.75 24.375H26.25C26.7473 24.375 27.2242 24.1775 27.5758 23.8258C27.9275 23.4742 28.125 22.9973 28.125 22.5V17.8125C28.125 17.5639 28.0262 17.3254 27.8504 17.1496C27.6746 16.9738 27.4361 16.875 27.1875 16.875C26.6902 16.875 26.2133 16.6775 25.8617 16.3258C25.51 15.9742 25.3125 15.4973 25.3125 15C25.3125 14.5027 25.51 14.0258 25.8617 13.6742C26.2133 13.3225 26.6902 13.125 27.1875 13.125V13.125ZM26.25 18.6281V22.5H19.6875V19.6875H17.8125V22.5H3.75V18.6281C4.5525 18.4184 5.26281 17.9485 5.76977 17.292C6.27673 16.6355 6.55173 15.8295 6.55173 15C6.55173 14.1705 6.27673 13.3645 5.76977 12.708C5.26281 12.0515 4.5525 11.5816 3.75 11.3719V7.5H17.8125V10.3125H19.6875V7.5H26.25V11.3719C25.4475 11.5816 24.7372 12.0515 24.2302 12.708C23.7233 13.3645 23.4483 14.1705 23.4483 15C23.4483 15.8295 23.7233 16.6355 24.2302 17.292C24.7372 17.9485 25.4475 18.4184 26.25 18.6281V18.6281Z" fill="#192A56"/>
<path d="M17.8125 12.1875H19.6875V17.8125H17.8125V12.1875Z" fill="#192A56"/>
</svg>
