<svg width="30" height="30" viewBox="0 0 30 30" fill="none" xmlns="http://www.w3.org/2000/svg">
<path fill-rule="evenodd" clip-rule="evenodd" d="M0 15C0 6.71852 6.71852 0 15 0C23.2815 0 30 6.71852 30 15C30 23.2815 23.2815 30 15 30C6.71852 30 0 23.2815 0 15ZM15 2.30769C7.99302 2.30769 2.30769 7.99302 2.30769 15C2.30769 22.007 7.99302 27.6923 15 27.6923C22.007 27.6923 27.6923 22.007 27.6923 15C27.6923 7.99302 22.007 2.30769 15 2.30769Z" fill="#192A56"/>
<path fill-rule="evenodd" clip-rule="evenodd" d="M15 4.61572C15.6372 4.61572 16.1538 5.13231 16.1538 5.76955V15.0002H21.9231C22.5603 15.0002 23.0769 15.5168 23.0769 16.154C23.0769 16.7913 22.5603 17.3079 21.9231 17.3079H15C14.3627 17.3079 13.8461 16.7913 13.8461 16.154V5.76955C13.8461 5.13231 14.3627 4.61572 15 4.61572Z" fill="#192A56"/>
</svg>
