<svg width="70" height="70" viewBox="0 0 70 70" fill="none" xmlns="http://www.w3.org/2000/svg">
<circle cx="35" cy="35" r="35" fill="#555555"/>
<path fill-rule="evenodd" clip-rule="evenodd" d="M18.3333 18.3333C18.3333 17.4129 19.0795 16.6667 20 16.6667H50C50.9205 16.6667 51.6666 17.4129 51.6666 18.3333C51.6666 19.2538 50.9205 20 50 20H20C19.0795 20 18.3333 19.2538 18.3333 18.3333ZM33.3333 30.6904V36.6667H27.357L33.3333 30.6904ZM36.6666 36.6667V30.6904L42.643 36.6667H36.6666ZM33.3333 40H23.3333C22.6592 40 22.0515 39.5939 21.7935 38.9711C21.5355 38.3484 21.6781 37.6315 22.1548 37.1548L33.8215 25.4882C33.9813 25.3284 34.1654 25.2078 34.362 25.1265C34.5585 25.045 34.774 25 35 25C35.226 25 35.4414 25.045 35.638 25.1265C35.8345 25.2078 36.0187 25.3284 36.1785 25.4882L47.8452 37.1548C48.3218 37.6315 48.4644 38.3484 48.2064 38.9711C47.9485 39.5939 47.3407 40 46.6666 40H36.6666V51.6667C36.6666 52.5871 35.9205 53.3333 35 53.3333C34.0795 53.3333 33.3333 52.5871 33.3333 51.6667V40Z" fill="white"/>
</svg>
