<svg width="40" height="40" viewBox="0 0 40 40" fill="none" xmlns="http://www.w3.org/2000/svg">
<path fill-rule="evenodd" clip-rule="evenodd" d="M3.33337 3.33317C3.33337 2.4127 4.07957 1.6665 5.00004 1.6665H35C35.9205 1.6665 36.6667 2.4127 36.6667 3.33317C36.6667 4.25365 35.9205 4.99984 35 4.99984H5.00004C4.07957 4.99984 3.33337 4.25365 3.33337 3.33317ZM18.3334 15.6902V21.6665H12.3571L18.3334 15.6902ZM21.6667 21.6665V15.6902L27.643 21.6665H21.6667ZM18.3334 24.9998H8.33337C7.65927 24.9998 7.05154 24.5938 6.79357 23.971C6.53561 23.3482 6.6782 22.6313 7.15486 22.1547L18.8215 10.488C18.9813 10.3282 19.1655 10.2076 19.3621 10.1263C19.5586 10.0448 19.7741 9.99984 20 9.99984C20.226 9.99984 20.4415 10.0448 20.638 10.1263C20.8346 10.2076 21.0188 10.3282 21.1786 10.488L32.8452 22.1547C33.3219 22.6313 33.4645 23.3482 33.2065 23.971C32.9485 24.5938 32.3408 24.9998 31.6667 24.9998H21.6667V36.6665C21.6667 37.587 20.9205 38.3332 20 38.3332C19.0796 38.3332 18.3334 37.587 18.3334 36.6665V24.9998Z" fill="white"/>
</svg>
